<?xml version="1.0" encoding="UTF-8" standalone="no"?>
<!-- Created with Inkscape (http://www.inkscape.org/) -->

<svg
   width="210mm"
   height="297mm"
   viewBox="0 0 210 297"
   version="1.1"
   id="svg5"
   inkscape:version="1.1.1 (3bf5ae0d25, 2021-09-20)"
   sodipodi:docname="pie_outline_gradient.svg"
   inkscape:export-filename="/home/rushvith/Rushvith/piemail/assets/images/pie_outline_gradient.png"
   inkscape:export-xdpi="67.476158"
   inkscape:export-ydpi="67.476158"
   xmlns:inkscape="http://www.inkscape.org/namespaces/inkscape"
   xmlns:sodipodi="http://sodipodi.sourceforge.net/DTD/sodipodi-0.dtd"
   xmlns:xlink="http://www.w3.org/1999/xlink"
   xmlns="http://www.w3.org/2000/svg"
   xmlns:svg="http://www.w3.org/2000/svg">
  <sodipodi:namedview
     id="namedview7"
     pagecolor="#505050"
     bordercolor="#eeeeee"
     borderopacity="1"
     inkscape:pageshadow="0"
     inkscape:pageopacity="0"
     inkscape:pagecheckerboard="0"
     inkscape:document-units="mm"
     showgrid="false"
     inkscape:zoom="0.54488788"
     inkscape:cx="-328.50795"
     inkscape:cy="388.15325"
     inkscape:window-width="1908"
     inkscape:window-height="1034"
     inkscape:window-x="6"
     inkscape:window-y="40"
     inkscape:window-maximized="1"
     inkscape:current-layer="g802" />
  <defs
     id="defs2">
    <linearGradient
       inkscape:collect="always"
       id="linearGradient22533">
      <stop
         style="stop-color:#004e6e;stop-opacity:1"
         offset="0"
         id="stop22529" />
      <stop
         style="stop-color:#aaeeff;stop-opacity:1"
         offset="1"
         id="stop22531" />
    </linearGradient>
    <clipPath
       clipPathUnits="userSpaceOnUse"
       id="clipPath2796">
      <rect
         style="fill:none;fill-rule:evenodd;stroke:#000000;stroke-width:0.0974376;stroke-miterlimit:4;stroke-dasharray:none;stroke-opacity:1"
         id="rect2798"
         width="1.9481959"
         height="5.557652"
         x="78.762032"
         y="103.25277" />
    </clipPath>
    <clipPath
       clipPathUnits="userSpaceOnUse"
       id="clipPath3566">
      <rect
         style="fill:none;stroke:#000000;stroke-width:0.0653563;stroke-miterlimit:4;stroke-dasharray:none;stroke-opacity:1"
         id="rect3568"
         width="1.503172"
         height="10.785905"
         x="58.223442"
         y="99.291267" />
    </clipPath>
    <linearGradient
       inkscape:collect="always"
       xlink:href="#linearGradient22533"
       id="linearGradient23351"
       gradientUnits="userSpaceOnUse"
       x1="7.4563689"
       y1="92.412956"
       x2="59.863957"
       y2="97.118676" />
    <linearGradient
       inkscape:collect="always"
       xlink:href="#linearGradient22533"
       id="linearGradient23353"
       gradientUnits="userSpaceOnUse"
       x1="7.4563689"
       y1="92.412956"
       x2="59.863957"
       y2="97.118676"
       gradientTransform="matrix(0.96955805,0,0,1.007339,0.23275313,-0.61953871)" />
    <linearGradient
       inkscape:collect="always"
       xlink:href="#linearGradient22533"
       id="linearGradient23355"
       gradientUnits="userSpaceOnUse"
       x1="7.4563689"
       y1="92.412956"
       x2="59.863957"
       y2="97.118676"
       gradientTransform="matrix(0.99843011,0,0,0.99773914,0.09396731,0.22468602)" />
    <linearGradient
       inkscape:collect="always"
       xlink:href="#linearGradient22533"
       id="linearGradient23357"
       gradientUnits="userSpaceOnUse"
       x1="7.4563689"
       y1="92.412956"
       x2="59.863957"
       y2="97.118676" />
    <linearGradient
       inkscape:collect="always"
       xlink:href="#linearGradient22533"
       id="linearGradient23359"
       gradientUnits="userSpaceOnUse"
       x1="7.4563689"
       y1="92.412956"
       x2="59.863957"
       y2="97.118676" />
    <linearGradient
       inkscape:collect="always"
       xlink:href="#linearGradient22533"
       id="linearGradient23361"
       gradientUnits="userSpaceOnUse"
       x1="7.4563689"
       y1="92.412956"
       x2="59.863957"
       y2="97.118676" />
    <linearGradient
       inkscape:collect="always"
       xlink:href="#linearGradient22533"
       id="linearGradient23363"
       gradientUnits="userSpaceOnUse"
       x1="7.4563689"
       y1="92.412956"
       x2="59.863957"
       y2="97.118676" />
    <linearGradient
       inkscape:collect="always"
       xlink:href="#linearGradient22533"
       id="linearGradient23365"
       gradientUnits="userSpaceOnUse"
       x1="7.4563689"
       y1="92.412956"
       x2="59.863957"
       y2="97.118676" />
    <linearGradient
       inkscape:collect="always"
       xlink:href="#linearGradient22533"
       id="linearGradient23367"
       gradientUnits="userSpaceOnUse"
       x1="7.4563689"
       y1="92.412956"
       x2="59.863957"
       y2="97.118676" />
    <linearGradient
       inkscape:collect="always"
       xlink:href="#linearGradient22533"
       id="linearGradient23369"
       gradientUnits="userSpaceOnUse"
       x1="7.4563689"
       y1="92.412956"
       x2="59.863957"
       y2="97.118676" />
    <linearGradient
       inkscape:collect="always"
       xlink:href="#linearGradient22533"
       id="linearGradient23371"
       gradientUnits="userSpaceOnUse"
       x1="7.4563689"
       y1="92.412956"
       x2="59.863957"
       y2="97.118676" />
    <linearGradient
       inkscape:collect="always"
       xlink:href="#linearGradient22533"
       id="linearGradient23373"
       gradientUnits="userSpaceOnUse"
       x1="7.4563689"
       y1="92.412956"
       x2="59.863957"
       y2="97.118676" />
    <linearGradient
       inkscape:collect="always"
       xlink:href="#linearGradient22533"
       id="linearGradient23375"
       gradientUnits="userSpaceOnUse"
       x1="7.4563689"
       y1="92.412956"
       x2="59.863957"
       y2="97.118676" />
    <linearGradient
       inkscape:collect="always"
       xlink:href="#linearGradient22533"
       id="linearGradient23377"
       gradientUnits="userSpaceOnUse"
       x1="7.4563689"
       y1="92.412956"
       x2="59.863957"
       y2="97.118676" />
    <linearGradient
       inkscape:collect="always"
       xlink:href="#linearGradient22533"
       id="linearGradient23379"
       gradientUnits="userSpaceOnUse"
       x1="7.4563689"
       y1="92.412956"
       x2="59.863957"
       y2="97.118676" />
    <linearGradient
       inkscape:collect="always"
       xlink:href="#linearGradient22533"
       id="linearGradient23381"
       gradientUnits="userSpaceOnUse"
       x1="7.4563689"
       y1="92.412956"
       x2="59.863957"
       y2="97.118676" />
    <linearGradient
       inkscape:collect="always"
       xlink:href="#linearGradient22533"
       id="linearGradient23383"
       gradientUnits="userSpaceOnUse"
       x1="7.4563689"
       y1="92.412956"
       x2="59.863957"
       y2="97.118676" />
    <linearGradient
       inkscape:collect="always"
       xlink:href="#linearGradient22533"
       id="linearGradient23385"
       gradientUnits="userSpaceOnUse"
       x1="7.4563689"
       y1="92.412956"
       x2="59.863957"
       y2="97.118676" />
    <linearGradient
       inkscape:collect="always"
       xlink:href="#linearGradient22533"
       id="linearGradient23387"
       gradientUnits="userSpaceOnUse"
       x1="7.4563689"
       y1="92.412956"
       x2="59.863957"
       y2="97.118676" />
    <linearGradient
       inkscape:collect="always"
       xlink:href="#linearGradient22533"
       id="linearGradient23389"
       gradientUnits="userSpaceOnUse"
       x1="7.4563689"
       y1="92.412956"
       x2="59.863957"
       y2="97.118676" />
    <linearGradient
       inkscape:collect="always"
       xlink:href="#linearGradient22533"
       id="linearGradient23391"
       gradientUnits="userSpaceOnUse"
       x1="7.4563689"
       y1="92.412956"
       x2="59.863957"
       y2="97.118676" />
    <linearGradient
       inkscape:collect="always"
       xlink:href="#linearGradient22533"
       id="linearGradient23393"
       gradientUnits="userSpaceOnUse"
       x1="7.4563689"
       y1="92.412956"
       x2="59.863957"
       y2="97.118676" />
    <linearGradient
       inkscape:collect="always"
       xlink:href="#linearGradient22533"
       id="linearGradient23395"
       gradientUnits="userSpaceOnUse"
       x1="7.4563689"
       y1="92.412956"
       x2="59.863957"
       y2="97.118676" />
  </defs>
  <g
     inkscape:label="Layer 1"
     inkscape:groupmode="layer"
     id="layer1">
    <g
       id="g802">
      <path
         style="fill:none;stroke:url(#linearGradient23351);stroke-width:0.211761px;stroke-linecap:butt;stroke-linejoin:miter;stroke-opacity:1"
         d="M 7.6503332,84.471888 7.6817972,102.91438 59.75808,117.73377 M 7.6503332,84.471888 59.726617,99.291262 m 0,0 0.03146,18.442508"
         id="path97"
         sodipodi:nodetypes="ccccccc" />
      <path
         style="fill:none;stroke:url(#linearGradient23353);stroke-width:0.209277px;stroke-linecap:round;stroke-linejoin:round;stroke-opacity:1"
         d="m 7.6501952,84.472288 c 0,0 11.6315078,-5.666686 22.8629858,-5.726103"
         id="path715" />
      <path
         style="fill:none;stroke:url(#linearGradient23355);stroke-width:0.211355px;stroke-linecap:round;stroke-linejoin:miter;stroke-opacity:1"
         d="M 31.276103,78.834061 C 59.726818,99.291467 59.726818,99.291467 59.726818,99.291467"
         id="path717" />
      <g
         id="g2867"
         transform="rotate(17.010805,111.9348,-140.88699)"
         style="stroke:url(#linearGradient23371);stroke-opacity:1">
        <path
           style="fill:none;stroke:url(#linearGradient23357);stroke-width:0.0809423px;stroke-linecap:butt;stroke-linejoin:miter;stroke-opacity:1"
           d="m 80.710229,108.81042 c 0,0 1.983333,5.12132 3.67667,0"
           id="path837" />
        <path
           style="fill:none;stroke:url(#linearGradient23359);stroke-width:0.0809423px;stroke-linecap:butt;stroke-linejoin:miter;stroke-opacity:1"
           d="m 88.063572,108.81042 c 0,0 1.983334,5.12132 3.676672,0"
           id="path837-5" />
        <path
           style="fill:none;stroke:url(#linearGradient23361);stroke-width:0.0809423px;stroke-linecap:butt;stroke-linejoin:miter;stroke-opacity:1"
           d="m 88.063572,108.81042 c 0,0 -1.983335,-5.12131 -3.676673,0"
           id="path837-3" />
        <path
           style="fill:none;stroke:url(#linearGradient23363);stroke-width:0.0809423px;stroke-linecap:butt;stroke-linejoin:miter;stroke-opacity:1"
           d="m 80.710229,108.81042 c 0,0 -1.983334,-5.12131 -3.676671,0"
           id="path837-3-6"
           clip-path="url(#clipPath2796)" />
        <path
           style="fill:none;stroke:url(#linearGradient23365);stroke-width:0.0809423px;stroke-linecap:butt;stroke-linejoin:miter;stroke-opacity:1"
           d="m 95.416915,108.81042 c 0,0 1.983334,5.12132 3.676672,0"
           id="path837-7" />
        <path
           style="fill:none;stroke:url(#linearGradient23367);stroke-width:0.0809423px;stroke-linecap:butt;stroke-linejoin:miter;stroke-opacity:1"
           d="m 102.77026,108.81042 c 0,0 -1.98334,-5.12131 -3.676673,0"
           id="path837-3-5" />
        <path
           style="fill:none;stroke:url(#linearGradient23369);stroke-width:0.0809423px;stroke-linecap:butt;stroke-linejoin:miter;stroke-opacity:1"
           d="m 95.416915,108.81042 c 0,0 -1.983333,-5.12131 -3.676671,0"
           id="path837-3-6-3" />
      </g>
      <g
         id="g3007"
         transform="rotate(15.178301,142.95635,69.177098)"
         style="stroke:url(#linearGradient23385);stroke-opacity:1">
        <path
           style="fill:none;stroke:url(#linearGradient23373);stroke-width:0.0809423px;stroke-linecap:butt;stroke-linejoin:miter;stroke-opacity:1"
           d="m 40.872589,123.83977 c 0,0 1.98333,5.12132 3.67667,0"
           id="path837-6-9" />
        <path
           style="fill:none;stroke:url(#linearGradient23375);stroke-width:0.0809423px;stroke-linecap:butt;stroke-linejoin:miter;stroke-opacity:1"
           d="m 48.225929,123.83977 c 0,0 1.98334,5.12132 3.67667,0"
           id="path837-5-2-2" />
        <path
           style="fill:none;stroke:url(#linearGradient23377);stroke-width:0.0809423px;stroke-linecap:butt;stroke-linejoin:miter;stroke-opacity:1"
           d="m 48.225929,123.83977 c 0,0 -1.98333,-5.12131 -3.67667,0"
           id="path837-3-9-0" />
        <path
           style="fill:none;stroke:url(#linearGradient23379);stroke-width:0.0809423px;stroke-linecap:butt;stroke-linejoin:miter;stroke-opacity:1"
           d="m 55.579279,123.83977 c 0,0 1.98333,5.12132 3.67667,0"
           id="path837-7-2-3" />
        <path
           style="fill:none;stroke:url(#linearGradient23381);stroke-width:0.0809423px;stroke-linecap:butt;stroke-linejoin:miter;stroke-opacity:1"
           d="m 62.932619,123.83977 c 0,0 -1.98334,-5.12131 -3.67667,0"
           id="path837-3-5-7-7" />
        <path
           style="fill:none;stroke:url(#linearGradient23383);stroke-width:0.0809423px;stroke-linecap:butt;stroke-linejoin:miter;stroke-opacity:1"
           d="m 55.579279,123.83977 c 0,0 -1.98334,-5.12131 -3.67668,0"
           id="path837-3-6-3-0-5" />
      </g>
      <path
         style="fill:none;stroke:url(#linearGradient23387);stroke-width:0.0809423px;stroke-linecap:butt;stroke-linejoin:miter;stroke-opacity:1"
         d="m 51.412206,100.98079 c 0,0 0.57326,5.46195 3.548412,0.96264"
         id="path837-6-9-1" />
      <path
         style="fill:none;stroke:url(#linearGradient23389);stroke-width:0.0809423px;stroke-linecap:butt;stroke-linejoin:miter;stroke-opacity:1"
         d="m 58.50903,102.90607 c 0,0 0.57327,5.46196 3.548412,0.96264"
         id="path837-5-2-2-2"
         clip-path="url(#clipPath3566)" />
      <path
         style="fill:none;stroke:url(#linearGradient23391);stroke-width:0.0809423px;stroke-linecap:butt;stroke-linejoin:miter;stroke-opacity:1"
         d="m 58.50903,102.90607 c 0,0 -0.573263,-5.461936 -3.548412,-0.96264"
         id="path837-3-9-0-9" />
      <path
         style="fill:none;stroke:url(#linearGradient23393);stroke-width:0.0665134px;stroke-linecap:butt;stroke-linejoin:miter;stroke-opacity:1"
         d="m 28.901603,81.077918 c 0,0 -0.36589,-0.131762 -0.557,-0.159819 -0.19296,-0.02833 -0.390941,-0.02607 -0.58504,-0.0071 -0.168066,0.01646 -0.336695,0.04757 -0.495757,0.104282 -0.163319,0.05821 -0.318647,0.141489 -0.461956,0.239085 -0.181088,0.123318 -0.356869,0.262379 -0.494944,0.432488 -0.189789,0.233816 -0.352417,0.500459 -0.441847,0.788022 -0.08912,0.286575 -0.08923,0.596489 -0.08271,0.896532 0.005,0.229076 0.03227,0.460107 0.09279,0.681103 0.06058,0.221243 0.153939,0.43473 0.267441,0.634069 0.133044,0.233655 0.29084,0.456983 0.479177,0.64888 0.146359,0.149132 0.317599,0.274954 0.497192,0.38175 0.208126,0.123766 0.431383,0.227183 0.663839,0.294984 0.262427,0.07654 0.537675,0.115065 0.810948,0.1221 0.244916,0.0062 0.492723,-0.01692 0.731464,-0.07193 0.198698,-0.04578 0.392124,-0.119585 0.573588,-0.212581 0.186255,-0.09545 0.363042,-0.213101 0.520946,-0.350459 0.176665,-0.153683 0.322219,-0.340521 0.469043,-0.522925 0.125289,-0.155653 0.251249,-0.312901 0.350434,-0.486368 0.06435,-0.112534 0.108528,-0.235586 0.156615,-0.355974 0.05587,-0.139935 0.118142,-0.278741 0.153025,-0.425317 0.02721,-0.114361 0.03572,-0.232714 0.04288,-0.350052 0.01074,-0.176566 0.03303,-0.356899 0,-0.530682 -0.0311,-0.163633 -0.100596,-0.320273 -0.183318,-0.464845 -0.08807,-0.153923 -0.202279,-0.293729 -0.327757,-0.419034 -0.0997,-0.09956 -0.217666,-0.179461 -0.333306,-0.259959 -0.171231,-0.1192 -0.342027,-0.243689 -0.532338,-0.329178 -0.12061,-0.05418 -0.292798,-0.01426 -0.38004,-0.11364 -0.05738,-0.06534 -0.05062,-0.17101 -0.04181,-0.257528 0.01154,-0.113143 0.078,-0.213738 0.121475,-0.318822 0.09781,-0.236333 0.180843,-0.48164 0.31336,-0.700401 0.07462,-0.123189 0.183645,-0.222177 0.267825,-0.339031 0.109602,-0.152144 0.18843,-0.326348 0.308279,-0.47057 0.09643,-0.116028 0.218986,-0.207595 0.326798,-0.313129 0.06743,-0.06599 0.130448,-0.136538 0.200138,-0.200139 0.09335,-0.0852 0.192092,-0.164404 0.29144,-0.242522 0.06916,-0.05437 0.139934,-0.106733 0.211903,-0.15732 0.07518,-0.05285 0.15083,-0.105291 0.229604,-0.152609 0.08068,-0.04846 0.166456,-0.08791 0.248406,-0.134166 0.12734,-0.0719 0.249392,-0.153057 0.377927,-0.2228 0.111909,-0.06073 0.225407,-0.118927 0.341981,-0.17012 0.156342,-0.06865 0.314944,-0.133669 0.478319,-0.183305 0.130881,-0.03975 0.265755,-0.06541 0.400102,-0.09111 0.114681,-0.02194 0.229729,-0.04475 0.346147,-0.05373 0.06629,-0.0051 0.133092,-0.0038 0.199464,0 0.06191,0.0037 0.124327,0.0079 0.184812,0.02157 0.07989,0.01814 0.154339,0.05517 0.232488,0.07977 0.0228,0.0072 0.04514,0.02198 0.06895,0.01977 0.03556,-0.0034 0.07977,-0.01609 0.09574,-0.04801 0.01122,-0.02245 -0.0071,-0.04983 -0.0133,-0.07413 -0.0045,-0.01698 -0.0109,-0.03339 -0.01734,-0.04974 -0.05198,-0.132739 -0.08935,-0.275109 -0.170912,-0.392018 -0.05119,-0.07339 -0.134278,-0.118911 -0.193911,-0.185619 -0.0109,-0.01218 -0.01796,-0.02764 -0.02972,-0.03898 -0.02077,-0.02005 -0.04682,-0.03379 -0.07068,-0.05004 -0.03815,-0.02601 -0.07161,-0.06272 -0.115867,-0.07594 -0.02048,-0.0061 -0.04442,-0.0083 -0.06409,0 -0.05358,0.02274 -0.08228,0.08241 -0.121347,0.125561 -0.04093,0.04519 -0.07316,0.09851 -0.118351,0.139454 -0.04081,0.03698 -0.08827,0.06632 -0.13588,0.09401 -0.05177,0.03012 -0.107599,0.05273 -0.161917,0.07797 -0.127901,0.05943 -0.256091,0.118351 -0.386101,0.172998 -0.06643,0.02793 -0.133909,0.05329 -0.201199,0.07911 -0.122452,0.04698 -0.247821,0.08658 -0.368521,0.1379 -0.08146,0.03464 -0.159659,0.07651 -0.239577,0.114569 -0.09419,0.04485 -0.18967,0.08707 -0.282798,0.134085 -0.108896,0.05499 -0.21711,0.111557 -0.322491,0.173014 -0.08805,0.05136 -0.173765,0.106701 -0.258522,0.163317 -0.107807,0.07203 -0.210637,0.151263 -0.3178,0.224238 -0.125192,0.08525 -0.260401,0.156246 -0.379782,0.249464 -0.10183,0.07951 -0.193633,0.171324 -0.284991,0.262674 -0.104362,0.104345 -0.204457,0.213128 -0.300096,0.325529 -0.07975,0.09372 -0.152368,0.193301 -0.227884,0.290475 -0.09196,0.11835 -0.187626,0.234001 -0.274258,0.356303 -0.05924,0.08363 -0.114184,0.170299 -0.167621,0.257748 -0.05422,0.08872 -0.10292,0.180698 -0.155125,0.270611 -0.05086,0.08759 -0.103288,0.174259 -0.154035,0.261905 -0.0759,0.131073 -0.135335,0.272696 -0.225039,0.394734 -0.04759,0.06475 -0.105628,0.121475 -0.164232,0.176449 -0.09608,0.09012 -0.196774,0.176399 -0.305875,0.250217 -0.08888,0.06014 -0.192353,0.09638 -0.281918,0.155493 -0.0448,0.02958 -0.113672,0.04709 -0.126956,0.09911 -0.01979,0.07757 0.04954,0.154756 0.09536,0.2204 0.04959,0.07108 0.116556,0.130721 0.188348,0.179266 0.04363,0.02952 0.09555,0.04442 0.143748,0.06566 0.03996,0.01761 0.07879,0.03854 0.120562,0.05123 0.06501,0.01976 0.13298,0.0286 0.200252,0.03812 0.06583,0.0093 0.132755,0.0091 0.198579,0.01851 0.0402,0.0058 0.07904,0.02269 0.119648,0.02291 0.06518,3.41e-4 0.1275,-0.02894 0.192417,-0.03475 0.0365,-0.0034 0.07339,0.0024 0.10997,0 0.04384,-0.0029 0.102872,0.01647 0.130641,-0.01758 0.04075,-0.04995 0.0021,-0.13032 -0.0133,-0.192915 -0.0099,-0.04064 -0.03762,-0.07512 -0.05038,-0.11497 -0.0196,-0.06127 -0.03176,-0.125064 -0.03953,-0.188921 -0.0083,-0.06873 -0.0082,-0.138332 -0.0075,-0.207553 3.11e-4,-0.03559 0.0048,-0.07103 0.0058,-0.106605 0.0016,-0.06099 0,-0.183015 0,-0.183015"
         id="path4245"
         sodipodi:nodetypes="cssssssssssssssssssssssssssssssssssssssssssssssssssssssssssssssssssssssssssssssssssssssssssssssssc" />
      <path
         style="fill:none;stroke:url(#linearGradient23395);stroke-width:0.1;stroke-linecap:butt;stroke-linejoin:miter;stroke-miterlimit:4;stroke-dasharray:none;stroke-opacity:1"
         d="m 25.329172,85.391061 c 0,0 1.250172,-0.316942 2.874942,0.98022 2.196921,-0.591684 2.510244,-1.247065 4.13265,-0.898774"
         id="path14652" />
    </g>
  </g>
</svg>
